# xmcd
#
# Track frame offsets:
#	150
#	17420
#	44792
#	64495
#	82942
#	99435
#	117820
#	136187
#	156612
#	180657
#	195477
#	213815
#	232310
#
# Disc length: 3314 seconds
#
# Revision: 0
# Processed by: cddbd v1.5.2PL0 Copyright (c) Steve Scherf et al.
# Submitted via: EasyCDDAExtractor 9.0.0.1
#
DISCID=b20cf00d
DTITLE=Johnny Walker - dla Ciebie gram
DYEAR=1997
DGENRE=Country
TTITLE0=Pare lat bylo tak
TTITLE1=Ja dla Ciebie gram
TTITLE2=Gdybys nie byl nikim
TTITLE3=Nie wolaj wiecej
TTITLE4=Wczorajsze dni
TTITLE5=Pozwól odejsc
TTITLE6=Zachlapany swiat
TTITLE7=Amerykanin w Gizycku
TTITLE8=Ból i lzy
TTITLE9=Cicho powiedziane
TTITLE10=Los kierowcy
TTITLE11=Zycie w biegu
TTITLE12=Wczorajsze dni
EXTD=
EXTT0=
EXTT1=
EXTT2=
EXTT3=
EXTT4=
EXTT5=
EXTT6=
EXTT7=
EXTT8=
EXTT9=
EXTT10=
EXTT11=
EXTT12=
PLAYORDER=
